<svg id="Layer_1" enable-background="new 0 0 511.91 511.91" height="512" viewBox="0 0 511.91 511.91" width="512" xmlns="http://www.w3.org/2000/svg"><path d="m454.924 262.016c-79.203 9.953-144.975 63.774-158.443 155.278l-30.526 30.526v-127.715l44.668-44.668c92.098-13.551 145.448-79.94 155.278-158.443.311-2.996-.745-5.972-2.875-8.102-2.129-2.13-5.105-3.184-8.103-2.875-79.203 9.953-144.975 63.774-158.443 155.278l-30.526 30.526v-58.455c57.494-77.226 48.135-164.91-2.237-229.707-3.766-4.877-11.76-4.877-15.525 0-50.797 65.398-59.355 152.98-2.238 229.706v138.455l-30.526-30.526c-13.552-92.1-79.938-145.446-158.443-155.278-2.991-.312-5.972.746-8.102 2.875-2.129 2.13-3.186 5.106-2.875 8.102.272 2.629 7.171 64.881 50.603 108.313 37.994 37.994 90.391 48.03 104.675 50.13l44.668 44.668v101.857c.528 13.268 19.476 13.258 20 0v-25.857l44.668-44.668c92.098-13.551 145.448-79.94 155.278-158.443.311-2.996-.745-5.972-2.875-8.102-2.128-2.129-5.104-3.184-8.101-2.875zm-94.17-91.255c27.017-27.017 63.514-38.205 82.877-42.474-11.513 54.201-44.357 101.235-105.875 120.017l65.27-65.27c3.905-3.905 3.905-10.237 0-14.143-3.906-3.905-10.236-3.905-14.143 0l-65.27 65.27c6.354-19.387 17.61-43.87 37.141-63.4zm-250.001 120.403c-27.017-27.017-38.205-63.515-42.474-82.877 19.368 4.271 55.863 15.459 82.877 42.473 19.532 19.532 30.787 44.016 37.14 63.401l-65.27-65.27c-3.905-3.905-10.237-3.905-14.143 0-3.905 3.905-3.905 10.237 0 14.143l65.269 65.269c-19.386-6.353-43.868-17.608-63.399-37.139zm115.202-171.202c0-40.09 18.947-75.416 30-92.611 32.001 48.99 42.235 108.286 10 167.877v-95.266c-.528-13.268-19.477-13.258-20 0v95.264c-9.799-19.007-20-45.848-20-75.264zm175.201 247.202c-19.531 19.531-44.015 30.787-63.4 37.14l65.27-65.27c3.905-3.905 3.905-10.237 0-14.143-3.906-3.905-10.236-3.905-14.143 0l-65.27 65.27c18.799-61.615 65.979-94.407 120.017-105.875-4.27 19.369-15.459 55.864-42.474 82.878z"/></svg>